<?xml version="1.0" encoding="UTF-8"?>
<svg id="_Слой_1" data-name="Слой 1" xmlns="http://www.w3.org/2000/svg" viewBox="0 0 64 64">
  <defs>
    <style>
      .cls-1 {
        fill: #fff;
      }

      .cls-2 {
        fill: #ffd199;
      }

      .cls-3 {
        fill: #e4e4e4;
      }

      .cls-4 {
        fill: #cdcdce;
      }

      .cls-5 {
        fill: #d07c15;
      }

      .cls-6 {
        fill: #f3921a;
        fill-rule: evenodd;
      }
    </style>
  </defs>
  <path class="cls-4" d="M33.86,4.21c3.71-1.01,7.67,.05,10.38,2.78l12.55,12.65c2.67,2.69,3.71,6.61,2.73,10.27l-4.69,17.5c-.98,3.67-3.84,6.53-7.5,7.53l-17.19,4.68c-3.71,1.01-7.67-.05-10.38-2.78l-12.55-12.65c-2.67-2.69-3.71-6.61-2.73-10.27l4.69-17.5c.98-3.67,3.84-6.53,7.5-7.53l17.19-4.68Z"/>
  <path class="cls-6" d="M12,48.08V12.06c0-3.35,2.56-6.06,5.71-6.06h31.43c1.58,0,2.86,1.36,2.86,3.03V42.16c0,1.27-1,1.84-2,1.84H20v10H52c0,1.22-1,2-2,2H20c-3.17,0-8-2.56-8-7.92Z"/>
  <path class="cls-2" d="M18,8H51.82c-.4-1.16-1.44-2-2.68-2H17.71c-.59,0-1.15,.09-1.69,.27,.13,.98,.96,1.73,1.97,1.73Z"/>
  <path class="cls-1" d="M31.49,24h2.51l-5.83-12h-2.36l-5.81,12h2.47l1.28-2.78h6.46l1.28,2.78Zm-6.94-4.53l2.42-5.25,2.43,5.25h-4.84Z"/>
  <path class="cls-1" d="M36,24V12h4.45c1.1,0,2.07,.25,2.91,.75s1.48,1.2,1.95,2.09c.47,.89,.7,1.94,.7,3.15s-.23,2.25-.7,3.15-1.11,1.59-1.95,2.09-1.8,.75-2.91,.75h-4.45Zm1.89-1.89h2.47c.77,0,1.42-.17,1.98-.51s.99-.82,1.29-1.44,.47-1.34,.47-2.16-.16-1.55-.47-2.16-.73-1.09-1.29-1.44-1.21-.51-1.98-.51h-2.47v8.23Z"/>
  <polygon class="cls-1" points="32.03 28 27.03 35.95 21.96 28 20 28 20 40 22.27 40 22.27 32.15 26.47 38.63 27.53 38.63 31.74 32.04 31.74 40 33.99 40 33.99 28 32.03 28"/>
  <path class="cls-1" d="M41.74,40c-.82,0-1.58-.14-2.29-.43s-1.31-.71-1.83-1.25-.91-1.18-1.2-1.92c-.29-.73-.43-1.53-.43-2.4s.14-1.67,.43-2.4c.29-.73,.69-1.36,1.21-1.9s1.13-.96,1.83-1.25,1.46-.45,2.29-.45c.88,0,1.68,.17,2.41,.5s1.34,.81,1.84,1.45l-1.29,1.32c-.39-.46-.83-.79-1.3-1.02s-1-.35-1.56-.35-1.08,.1-1.55,.3-.87,.48-1.21,.85-.61,.8-.8,1.3-.28,1.05-.28,1.65,.09,1.15,.28,1.65,.46,.94,.8,1.3,.75,.65,1.21,.85,.99,.3,1.55,.3,1.09-.11,1.56-.33,.92-.58,1.3-1.05l1.29,1.33c-.5,.63-1.11,1.12-1.84,1.45s-1.53,.5-2.42,.5Z"/>
  <path class="cls-1" d="M19,44c-2.76,0-5,2.24-5,5s2.24,5,5,5h31v-10H19Z"/>
  <path class="cls-5" d="M50,44v10H19c-2.76,0-5-2.24-5-5V7.46c-1.22,1.11-2,2.76-2,4.6V48.08c0,5.36,4.83,7.92,8,7.92h30c1,0,2-.78,2-2v-11.84c0,1.27-1,1.84-2,1.84Z"/>
  <path class="cls-3" d="M19,44c-1.63,0-3.06,.79-3.98,2H50v-2H19Z"/>
</svg>